<?xml version="1.0" standalone="no"?>
<!DOCTYPE svg PUBLIC "-//W3C//DTD SVG 1.1//EN" "http://www.w3.org/Graphics/SVG/1.1/DTD/svg11.dtd" >
<svg xmlns="http://www.w3.org/2000/svg">
<metadata>Generated by IcoMoon</metadata>
<defs>
<font id="icomoon" horiz-adv-x="1024">
<font-face units-per-em="1024" ascent="960" descent="-64" />
<missing-glyph horiz-adv-x="1024" />
<glyph unicode="&#x20;" horiz-adv-x="512" d="" />
<glyph unicode="&#xe900;" glyph-name="dingdan" d="M732.567 632.852c24.697 0 45.917 18.995 45.917 42.809s-19.772 42.878-44.396 42.878h-442.654c-24.697 0-44.396-19.065-44.396-42.878s19.699-42.809 44.396-42.809h441.133zM732.567 420.206c24.697 0 44.396 18.995 45.917 42.739 0 23.814-19.772 42.878-44.396 42.878h-442.654c-24.697 0-44.396-19.065-44.396-42.878 0-23.744 19.699-42.739 44.396-42.739h441.133zM732.567 236.89c24.697 0 44.396 18.995 45.917 42.739 0 23.814-19.772 42.878-44.396 42.878h-442.654c-24.697 0-44.396-19.065-44.396-42.878 0-23.744 19.699-42.739 44.396-42.739h441.133zM821.431 903.111c49.321 0 88.792-38.060 88.792-84.709v-739.826c-0.766-44.177-20.508-85.687-88.792-85.617l-618.789-0.070c-49.393 0-88.864 38.549-88.864 85.687v738.918c0 47.557 39.978 85.617 88.864 85.617h618.789z" />
<glyph unicode="&#xe901;" glyph-name="dongtai" d="M704 256l-384-256v256h-142.222c-62.838 0-113.778 50.94-113.778 113.778v412.444c0 62.838 50.94 113.778 113.778 113.778v0h668.444c62.838 0 113.778-50.94 113.778-113.778v-412.444c0-62.838-50.94-113.778-113.778-113.778h-142.222zM240 736c-26.51 0-48-21.49-48-48s21.49-48 48-48h544c26.51 0 48 21.49 48 48s-21.49 48-48 48h-544zM240 512c-26.51 0-48-21.49-48-48s21.49-48 48-48h416c26.51 0 48 21.49 48 48s-21.49 48-48 48h-416z" />
<glyph unicode="&#xe902;" glyph-name="gonggao" d="M183.432 681.363c0-24.494 0-305.887 0-305.887 478.486-21.164 617.423-195.758 617.423-195.758 184.995 44.593 165.478 361.285 165.478 361.285 14.052 460.3-167.041 417.977-167.041 417.977-211.53-244.135-615.861-253.122-615.861-277.616zM377.014 298.381h-117.868c0 0 17.171-148.898 142.063-305.355 0 0 108.496-4.536 124.892 38.546 0 0 11.708 28.72-23.419 65.76-10.926 17.381-109.277 98.258-125.667 201.050v0zM0 469.629c0-31.128 25.812-56.361 56.79-56.361h59.516v253.957h-59.516c-31.364 0-56.79-25.279-56.79-56.361v-141.235z" />
<glyph unicode="&#xe903;" glyph-name="healthy" d="M512 448c111.359 0 204.265 80.383 223.783 186.184-13.004 9.149-21.51 24.258-21.51 41.367 0 27.93 22.644 50.574 50.573 50.574 27.926 0 50.561-22.644 50.561-50.574 0-20.239-11.892-37.696-29.072-45.768-21.893-131.656-136.564-232.352-274.331-232.352-137.772 0-252.444 100.696-274.336 232.352-17.175 8.072-29.076 25.529-29.076 45.768 0 27.93 22.639 50.574 50.57 50.574 27.926 0 50.565-22.644 50.565-50.574 0-17.109-8.503-32.214-21.503-41.367 19.51-105.792 112.424-186.184 223.775-186.184zM865.972 903.111h-205.459c-12.427-1.758-22.097-12.384-22.097-25.283s-278.121-12.899-278.121 0c0 12.899-9.67 23.525-22.148 25.066 0.009 0.052-60.053 0.124-180.185 0.217-55.752-0.039-101.074-45.378-101.074-101.135v-707.957c0-55.773 45.356-101.135 101.135-101.135h707.948c55.782 0 101.139 45.362 101.139 101.135v707.957c0 55.779-45.357 101.135-101.139 101.135z" />
<glyph unicode="&#xe904;" glyph-name="huifu" d="M273.409 457.368c-34.996 0-63.387 29.453-63.387 65.625 0 36.166 28.509 65.625 63.387 65.625 34.873 0 63.381-29.459 63.381-65.625 0-36.171-28.39-65.625-63.381-65.625v0zM510.574 457.368c-34.99 0-63.387 29.453-63.387 65.625 0 36.166 28.509 65.625 63.387 65.625 34.991 0 63.387-29.459 63.387-65.625 0-36.171-28.395-65.625-63.387-65.625v0zM747.738 457.368c-34.99 0-63.387 29.453-63.387 65.625 0 36.166 28.515 65.625 63.387 65.625 34.991 0 63.387-29.459 63.387-65.625 0-36.171-28.395-65.625-63.387-65.625v0zM154.883 826.373c-30.397 0-55.14-25.687-55.14-57.377v-461.259c0-15.551 6.364-31.927 17.44-44.886 11.311-13.077 26.034-20.621 40.41-20.621h181.789c22.151 0 46.892-22.735 47.954-23.799l0.118-0.118 124.767-129.476 124.648 129.24c2.244 2.474 21.915 24.035 44.892 24.035h181.907c14.375 0 29.105 7.544 40.416 20.621 11.076 12.841 17.433 29.216 17.433 44.886v461.259c0 31.572-24.741 57.375-55.139 57.375l-711.494 0.119zM510.574 0c-5.065 0-9.9 2.002-13.431 5.774l-0.354 0.354c-13.077 13.549-128.302 132.896-159.999 166.593l-0.236 0.236h-179.079c-33.107 0-64.681 14.606-88.832 41.118-23.213 25.563-36.644 59.733-36.644 93.544v461.259c0 70.099 55.021 127.122 122.765 127.122h711.494c67.631 0 122.764-57.023 122.764-127.122v-461.259c0-33.811-13.313-67.981-36.638-93.544-24.151-26.512-55.611-41.118-88.836-41.118h-183.2l-0.236-0.236c-61.622-59.969-155.052-165.767-155.991-166.829l-0.118-0.118c-3.536-3.654-8.365-5.774-13.431-5.774v0z" />
<glyph unicode="&#xe905;" glyph-name="meiti" d="M798.779 592.352l-349.191 0.22c-24.001 0-43.393 16.611-43.393 37.1 0 20.343 19.391 36.953 43.393 36.953l349.191-0.22c24.001 0 43.393-16.611 43.393-37.027s-19.391-37.027-43.393-37.027v0zM798.779 398.877l-349.191 0.22c-24.001 0-43.393 16.611-43.393 37.1 0 20.416 19.391 36.953 43.393 36.953l349.191-0.22c24.001 0 43.393-16.538 43.393-37.1 0-20.343-19.391-36.953-43.393-36.953v0zM277.333 832v-721.213c0-11.269-1.756-22.684-5.342-33.441-0.146-0.293-0.146-0.512-0.22-0.732-8.049-23.709-24.367-44.856-46.612-60.808l-17.342-12.367 653.965-0.439c59.784 0 108.372 41.49 108.372 92.64v736.36h-692.821zM204.451 710.749v-623.451c0-48.296-45.734-87.298-102.226-87.298-56.418 0-102.226 39.075-102.226 87.298v623.451h204.451z" />
<glyph unicode="&#xe906;" glyph-name="shang" d="M608.303 630.511c-53.187 60.785-139.075 61.178-192.607 0l-319.393-365.021c-53.187-60.785-30.49-110.061 49.799-110.061h20.419l345.515 403.768 341.663-403.768h23.68c80.977 0 103.85 48.883 50.319 110.061l-319.393 365.021z" />
<glyph unicode="&#xe907;" glyph-name="shipin" d="M1024 112.502c0-8.022-3.007-16.037-11.030-19.045-5.008-3.005-8.015-3.005-11.020-3.005-5.008 0-11.020 3.005-13.023 5.017l-180.355 177.911c-5.008 3.005-8.013 11.020-8.013 16.028v301.718c0 5.017 3.005 11.020 8.013 16.037l180.355 177.914c5.008 5.008 13.023 5.008 21.045 3.005 8.015-3.005 13.023-11.020 13.023-19.042v-656.537h1.005zM728.416 218.836c0-89.17-91.177-89.17-91.177-89.17h-546.061c0 0-91.177 0-91.177 89.17v448.879c0 89.177 91.177 89.177 91.177 89.177h546.061c0 0 91.177 0 91.177-91.177v-446.879z" />
<glyph unicode="&#xe908;" glyph-name="shoutu" d="M287.683 383.098c-164.73 0-287.651-112.548-287.651-276.064v-17.575c0-85.468 131.784-85.468 298.569-85.468h177.189c160.299 0 298.698 0 298.698 85.468v17.575c0 163.516-122.986 276.064-287.716 276.064h-199.089zM378.365 426.125c130.371 0 236.53 105.387 236.53 234.989 0 129.537-106.159 234.859-236.53 234.859-130.435 0-236.53-105.322-236.53-234.859 0-129.602 106.095-234.989 236.53-234.989v0zM670.023 378.678c-5.523 0-11.046-0.195-16.441-0.521 92.030-43.613 151.757-132.792 151.757-246.771v-17.575c0-5.468-0.514-10.545-1.606-15.297h5.33c118.426 0 220.668 0 220.668 63.141v13.019c0 120.749-90.874 204.005-212.576 204.005h-147.133zM737.006 410.444c96.333 0 174.813 77.918 174.813 173.606 0 95.753-78.48 173.671-174.813 173.671-96.398 0-174.749-77.918-174.749-173.671 0-95.688 78.351-173.606 174.749-173.606v0z" />
<glyph unicode="&#xe909;" glyph-name="wenda" d="M811.533 104.537c170.816 149.632 210.24 400 93.568 594.88-116.672 194.816-355.968 278.4-568.512 198.464-212.608-79.936-337.6-300.48-296.96-523.904s235.2-385.792 462.336-385.792h402.752l-93.184 116.352zM501.965 139.481c-15.168 0-29.184 8.128-36.736 21.184-7.552 13.12-7.552 29.312 0 42.432s21.568 21.184 36.736 21.184c23.36 0 42.368-19.008 42.368-42.368 0-23.424-19.008-42.432-42.368-42.432v0zM687.565 561.241c-6.72-37.952-22.336-73.664-51.328-102.656-11.2-13.44-26.816-24.576-42.368-33.472-13.44-6.656-26.816-13.376-35.712-24.512-8.96-11.2-13.376-28.992-13.376-58.048 0-24.512-20.096-44.672-44.672-44.672s-42.368 17.92-42.368 42.496c0 51.2 13.376 84.736 31.232 109.312 17.856 24.512 40.128 37.888 62.464 49.024 9.088 4.672 17.344 10.688 24.576 17.856 15.552 13.376 24.512 33.472 26.752 51.328 2.176 20.096-2.24 40.192-11.136 57.984-6.72 8.96-11.136 17.92-20.096 26.816-18.176 18.624-43.136 29.12-69.184 29.056-13.376 0-26.752-4.544-40.128-8.96-11.136-4.416-24.576-11.2-33.472-22.336-17.856-17.856-28.992-40.192-28.992-69.184 0-22.272-17.856-40.128-42.432-40.128-24.448 0-42.368 17.856-42.368 42.368 0 53.568 22.336 98.24 53.568 131.648 17.856 15.616 40.192 31.232 62.464 40.192 22.336 11.136 46.848 15.616 73.664 15.616 44.608 0 91.456-15.616 129.408-53.568 13.056-13.376 24.32-28.352 33.472-44.608 17.792-35.776 24.448-75.904 20.032-111.552v0z" />
<glyph unicode="&#xe90a;" glyph-name="woshiyishi" d="M380.083 404.032c-180.992 0-316.096-122.048-316.096-299.264v-19.072c0-92.672 144.832-92.672 328.064-92.672h194.688c176.128 0 328.192 0 328.192 92.672v19.072c0 177.216-135.104 299.264-316.096 299.264h-218.752zM604.104 757.853h-92.465v-92.576c0-13.875-11.544-25.309-25.42-25.309-13.986 0-25.531 11.433-25.531 25.309v92.576h-92.465c-13.986 0-25.42 11.544-25.42 25.42 0 13.986 11.433 25.531 25.42 25.531h92.465v92.354c0 14.097 11.544 25.531 25.531 25.531 13.875 0 25.42-11.433 25.42-25.531v-92.354h92.465c13.986 0 25.42-11.544 25.42-25.531 0-13.875-11.433-25.42-25.42-25.42zM793.619 823.968c0 74.88-61.184 136-136 136h-336.32c-74.816 0-136-61.12-136-136 0-35.84 14.336-68.352 37.248-92.672-0.96-8.704-2.688-17.088-2.688-25.92 0-140.544 116.544-254.784 259.84-254.784s259.904 114.24 259.904 254.784c0 3.392-0.896 6.592-1.024 10.112 33.152 24.832 55.040 64.128 55.040 108.48z" />
<glyph unicode="&#xe90b;" glyph-name="xia" d="M608.303 265.489c-53.187-60.785-139.075-61.178-192.607 0l-319.393 365.021c-53.187 60.785-30.49 110.061 49.799 110.061h20.419l345.515-403.768 341.663 403.768h23.68c80.977 0 103.85-48.883 50.319-110.061l-319.393-365.021z" />
<glyph unicode="&#xe90c;" glyph-name="xuetang" d="M961.426 714.708c0 48.128-70.583 46.080-70.583 0v-625.883c0-16.091-13.019-29.111-29.111-29.111h-636.123c-42.057 0.073-91.209 34.011-91.209 93.038 0 50.395 34.67 93.111 75.63 93.111h579.511c19.529 0 35.255 15.799 35.255 35.255v570.295c0 19.602-15.726 35.474-35.255 35.474h-513.097c-117.029 0-212.48-95.451-212.48-212.48v-523.264c0-5.12 3.95-33.938 4.096-34.889 15.067-72.631 72.923-126.903 142.19-126.903h651.557c54.93 0 99.621 44.544 99.694 99.694v625.664h-0.073zM789.753 188.175h-494.153c-48.713 0-46.373-70.656 0-70.656h494.153c45.568 0 49.737 70.656 0 70.656z" />
<glyph unicode="&#xe90d;" glyph-name="xuexi" d="M502.099 622.438c-88.128 0-158.656 70.528-158.656 152.768 0 82.304 70.528 152.768 158.656 152.768s158.656-70.464 158.656-152.768c0-82.24-70.528-152.768-158.656-152.768zM502.099 440.294c-123.392 111.616-287.936 182.144-470.080 182.144v-452.416c182.144 0 346.688-70.528 470.080-182.208 123.392 111.68 287.936 182.208 470.080 182.208v452.416c-182.144 0-346.688-70.528-470.080-182.144z" />
<glyph unicode="&#xe90e;" glyph-name="yazhuanlan" d="M738.71 620.041c24.942 0 46.373 19.895 46.373 44.837s-19.968 44.91-44.837 44.91h-447.049c-24.942 0-44.837-19.968-44.837-44.91s19.895-44.837 44.837-44.837h445.513zM738.71 397.321c24.942 0 44.837 19.895 46.373 44.763 0 24.942-19.968 44.91-44.837 44.91h-447.049c-24.942 0-44.837-19.968-44.837-44.91 0-24.869 19.895-44.763 44.837-44.763h445.513zM828.457 903.104c49.81 0 89.673-39.863 89.673-88.722v-552.155h-238.226c-49.81 0-89.673-40.375-89.673-89.673v-222.793h-386.706c-49.883 0-89.746 40.375-89.746 89.746v773.925c0 49.81 40.375 89.673 89.746 89.673h624.933zM679.904 129.691v-179.419l238.226 222.793h-193.39c-24.869 0.951-44.837-19.017-44.837-43.374v0z" />
<glyph unicode="&#xe90f;" glyph-name="yiguan" d="M874.173 358.87l1.105 0.675c2.762 1.657 6.384-0.307 6.384-3.56v-227.305c0-53.22-43.46-96.68-96.619-96.68h-546.134c-53.281 0.184-96.434 43.337-96.619 96.68v227.919c0 3.376 3.622 5.34 6.384 3.622l1.473-0.859c29.833-17.74 64.024-26.886 101.713-26.886 46.959 0 91.892 16.635 128.6 46.836 1.535 1.289 3.806 1.289 5.34 0 35.48-28.605 79.247-45.056 124.794-46.836h1.35c46.284-0.061 91.094 16.328 126.574 46.161 1.535 1.228 3.806 1.228 5.34 0 36.401-29.771 80.966-46.161 127.74-46.161h0.184c37.199 0 70.776 8.594 102.389 26.395v0zM183.54 421.421c-54.386 29.28-88.086 86.245-87.534 148.058 0 17.556 2.578 33.823 8.164 51.501 0 1.289 1.289 2.762 1.289 4.051l76.607 182.065c10.926 35.173 43.705 56.903 84.771 56.903h492.914c41.066 0 75.318-23.019 87.534-59.727l69.794-177.891c0-2.762 1.289-4.113 1.289-6.875 5.218-16.635 8.41-34.13 9.576-51.624-0.061-60.832-33.025-116.937-86.183-146.585-23.326-12.031-49.291-18.845-79.431-18.845-48.8-0.123-95.084 21.791-125.899 59.604-31.49-37.997-75.318-59.665-124.487-59.665-48.125 1.473-93.365 23.142-124.671 59.665-30.815-37.813-77.037-59.727-125.776-59.665-30.017 0-56.166 6.691-77.958 18.906v0.123z" />
<glyph unicode="&#xe910;" glyph-name="yishirenzheng" d="M337.661 355.731h213.606c-47.172-52.361-75.776-122.197-75.776-198.588 0-92.979 44.237-176.333 111.548-230.127h-249.378c-186.573 0.205-337.647 0.341-337.647 75.23v21.504c0 183.296 151.074 331.981 337.647 331.981zM435.692 955.727c144.384 0 261.461-115.029 261.461-257.161s-117.077-257.092-261.461-257.092c-144.316 0-261.461 115.166-261.461 257.092 0 142.131 117.146 257.161 261.461 257.161zM762.566 33.396l-22.869-27.443-119.057 128.205 41.165 41.165 73.318-77.892 141.995 178.654 45.807-36.591-160.358-206.097zM762.566 390.636c-128.205 0-228.966-105.335-228.966-233.54 0-128.068 105.335-233.472 228.966-233.472 128.205 0 228.966 105.404 228.966 233.472 0 128.273-100.762 233.54-228.966 233.54v0z" />
<glyph unicode="&#xe911;" glyph-name="zan" d="M256 64.047l95.639-0.047 0.361 512-95.549-0.229z" />
<glyph unicode="&#xe912;" glyph-name="zhaopian" d="M717.809 434.916c-7.175 8.674-17.76 13.805-29.012 14.063-10.931-0.644-21.251-5.264-29.012-12.994l-42.359-35.596c-7.196-6.414-16.36-10.178-25.985-10.678-9.158-0.073-18.026 3.22-24.919 9.255l-9.787 9.255-121.743 132.24c-9.371 11.165-23.155 17.67-37.735 17.798-14.65-0.236-28.504-6.709-38.087-17.798l-286.553-346.534v590.905c1.722 15.116 14.512 26.526 29.723 26.521h810.005c15.457 0.212 28.331-11.8 29.188-27.232v-591.439l-224.436 242.233h0.711zM951.145 883.969h-887.782c-16.93-0.092-33.126-6.921-45.014-18.975-11.892-12.055-18.493-28.346-18.347-45.276v-743.615c-0.146-16.93 6.455-33.222 18.347-45.276 11.888-12.054 28.085-18.883 45.014-18.975h887.603c16.928 0.092 33.125 6.921 45.013 18.975s18.494 28.346 18.348 45.276v743.794c0.146 16.9-6.435 33.164-18.281 45.213-11.85 12.051-28.001 18.896-44.901 19.038v-0.179zM764.082 563.601c39.319-0.74 71.792 30.539 72.529 69.857 0.74 39.319-30.539 71.792-69.858 72.529h-2.671c-39.315-0.004-71.184-31.878-71.184-71.194s31.869-71.188 71.184-71.193z" />
<glyph unicode="&#xe913;" glyph-name="zhaopin" d="M363.238 364.409h225.288c-49.752-51.976-79.92-121.299-79.92-197.128 0-92.296 46.656-175.036 117.648-228.435h-263.016c-196.776 0.203-356.112 0.339-356.112 74.677v21.346c0 181.948 159.336 329.54 356.112 329.54zM466.63 959.993c152.28 0 275.76-114.184 275.76-255.27s-123.48-255.202-275.76-255.202c-152.208 0-275.76 114.319-275.76 255.202 0 141.086 123.552 255.27 275.76 255.27zM1022.599-18.963l-98.959 93.287c-2.144 2.025-4.608 3.565-7.24 4.636 25.175 29.95 40.204 67.8 40.204 108.949 0 97.075-83.614 175.762-186.745 175.762s-186.748-78.687-186.748-175.762c0-97.064 83.617-175.762 186.748-175.762 43.763 0 84.012 14.175 115.849 37.91 1.134-2.468 2.763-4.78 4.903-6.798l98.959-93.287c9.095-8.585 23.889-8.585 33.008-0.023 9.117 8.561 9.117 22.486 0.021 31.088z" />
<glyph unicode="&#xe914;" glyph-name="zhuanlan" d="M720.933 644.93c24.942 0 46.373 19.895 46.373 44.837s-19.968 44.91-44.837 44.91h-447.049c-24.942 0-44.837-19.968-44.837-44.91s19.895-44.837 44.837-44.837h445.513zM720.933 422.21c24.942 0 44.837 19.895 46.373 44.763 0 24.942-19.968 44.91-44.837 44.91h-447.049c-24.942 0-44.837-19.968-44.837-44.91 0-24.869 19.895-44.763 44.837-44.763h445.513zM810.679 927.993c49.81 0 89.673-39.863 89.673-88.722v-552.155h-238.226c-49.81 0-89.673-40.375-89.673-89.673v-222.793h-386.706c-49.883 0-89.746 40.375-89.746 89.746v773.925c0 49.81 40.375 89.673 89.746 89.673h624.933zM662.126 154.58v-179.419l238.226 222.793h-193.39c-24.869 0.951-44.837-19.017-44.837-43.374v0z" />
<glyph unicode="&#xe915;" glyph-name="zhuzuo" d="M504.854 321.712h104.448c27.063 0 48.347-21.285 48.347-48.347s-21.285-48.347-48.347-48.347h-104.448c-133.486 0-241.81 108.251-241.81 241.737s108.325 241.81 241.81 241.81h104.448c27.063 0 48.347-21.285 48.347-48.347s-21.285-48.347-48.347-48.347h-104.448c-81.262 0-145.042-63.854-145.042-145.115 0-79.287 65.755-145.042 145.042-145.042zM493.224 960.029c-272.677 0-493.202-220.526-493.202-493.275s220.526-493.275 493.202-493.275c272.75 0 493.275 220.526 493.275 493.275s-222.501 493.275-493.275 493.275z" />
<glyph unicode="&#xe916;" glyph-name="zichan" d="M654.898 213.176h-117.629v-70.607c0-14.824-12.953-26.917-28.917-26.917-16.034 0-28.987 12.093-28.987 26.917v70.607h-118.399c-16.034 0-28.987 12.093-28.987 26.917 0 14.889 12.953 26.917 28.987 26.917h118.399v34.198h-118.399c-16.034 0-28.987 12.028-28.987 26.917 0 14.824 12.953 26.982 28.987 26.982h80.030l-81.92 135.168c-7.982 12.938-3.221 29.387 10.573 36.799 13.863 7.412 31.578 2.991 39.63-9.817l98.584-162.15h5.041l98.654 162.15c7.982 12.808 25.696 17.229 39.56 9.817s18.555-23.861 10.643-36.799l-81.99-135.168h75.128c16.034 0 28.987-12.158 28.987-26.982 0-14.889-12.953-26.917-28.987-26.917h-117.629v-34.198h117.629c16.034 0 28.987-12.028 28.987-26.917 0-14.824-12.953-26.917-28.987-26.917zM627.661 639.55h-239.879c-265.645 0-330.901-484.628-330.901-484.628 0-63.716 55.524-127.626 124.070-127.626h653.47c68.547 0 124.14 63.911 124.14 127.626 0 0-65.256 484.628-330.901 484.628zM346.424 901.869c70.857-9.037 99.634-50.712 157.188-50.712 56.154 0 74.848 52.988 152.987 50.712 78.139-2.211 82.76-34.328 82.76-76.849 0 0-53.703-141.67-124.070-141.67h-227.486c-70.437 0-124.14 141.67-124.14 141.67 0 42.52 11.973 86.016 82.76 76.849z" />
<glyph unicode="&#xe917;" glyph-name="ziliao" d="M335.178 364.382h212.036c-46.825-51.976-75.219-121.299-75.219-197.128 0-92.296 43.912-175.036 110.728-228.435h-247.544c-185.201 0.136-335.164 0.339-335.164 74.677v21.346c0 182.016 149.963 329.54 335.164 329.54zM432.488 959.966c143.322 0 259.539-114.184 259.539-255.27 0-141.018-116.216-255.202-259.539-255.202-143.255 0-259.539 114.319-259.539 255.202 0 141.086 116.284 255.27 259.539 255.27zM756.959 59.834c-52.247 0.136-94.6 42.488-94.667 94.667 0.068 52.314 42.421 94.6 94.667 94.735 52.247-0.068 94.6-42.421 94.667-94.735-0.068-52.179-42.421-94.6-94.667-94.667zM980.311 199.226c-2.44 12.943-10.3 21.346-19.855 21.143h-1.965c-32.73 0-59.362 26.632-59.362 59.43 0 10.707 5.082 22.633 5.15 22.701 5.015 11.588 1.22 25.141-9.013 32.527l-58.345 32.392c-3.388 1.491-7.048 2.168-11.046 2.168-8.132 0-16.060-3.253-21.346-8.674-6.98-7.183-28.936-25.886-46.69-25.886-17.89 0-40.049 19.042-47.029 26.428-5.218 5.557-13.282 8.809-21.481 8.809-3.863 0-7.522-0.745-10.842-2.168l-0.61-0.203-59.768-32.866c-10.3-7.386-14.027-20.872-9.080-32.459 0.068-0.136 5.15-12.062 5.15-22.769 0-32.798-26.632-59.43-59.362-59.43h-2.033c-9.487 0.271-17.348-8.2-19.787-21.143-0.203-1.084-4.744-25.547-4.744-44.86 0-19.245 4.54-43.708 4.744-44.792 2.44-12.875 10.097-21.21 19.448-21.21h2.372c32.73 0 59.43-26.699 59.43-59.362 0-10.842-5.15-22.633-5.218-22.769-4.947-11.656-1.22-25.141 9.013-32.527l0.542-0.271 56.651-31.646c3.388-1.491 7.048-2.236 11.046-2.236 8.2 0 16.264 3.32 21.414 8.945 6.573 7.183 29.478 27.58 47.774 27.58 18.432 0 40.998-20.262 48.045-28.055 5.218-5.692 13.282-9.148 21.617-9.148 3.863 0 7.522 0.678 10.842 2.101l0.542 0.271 58.684 32.459c10.232 7.183 14.163 21.143 9.080 32.527-0.068 0.136-5.15 11.927-5.15 22.769 0 32.663 26.632 59.362 59.362 59.362h1.965c9.623-0.203 17.416 8.132 19.855 21.21 0.203 1.084 4.811 25.48 4.811 44.792s-4.608 43.776-4.811 44.86zM755.665 206.877c-28.8-0.068-52.179-23.447-52.247-52.247 0.068-28.732 23.447-52.111 52.247-52.179 28.8 0.068 52.179 23.447 52.179 52.179 0 28.8-23.379 52.179-52.179 52.247z" />
</font>
</defs>
</svg>
